<?xml version="1.0" encoding="utf-8"?>
<!-- Generator: Adobe Illustrator 19.1.0, SVG Export Plug-In . SVG Version: 6.00 Build 0)  -->
<!DOCTYPE svg PUBLIC "-//W3C//DTD SVG 1.1//EN" "http://www.w3.org/Graphics/SVG/1.1/DTD/svg11.dtd">
<svg version="1.1" id="Layer_1" xmlns="http://www.w3.org/2000/svg" xmlns:xlink="http://www.w3.org/1999/xlink" x="0px" y="0px"
	 viewBox="0 0 511.9 595.3" style="enable-background:new 0 0 511.9 595.3;" xml:space="preserve">
<style type="text/css">
	.st0{fill:none;}
	.st1{fill:#FFFFFF;}
</style>
<g>
	<path class="st0" d="M138.9,263.3c-3.1,2.3,1.1,6.1,4.8,8.7c1.4-3.8,2.4-7.8,2.8-11.9C143.7,260.9,140.9,261.8,138.9,263.3z"/>
	<path class="st0" d="M395.8,293.5c0,0-0.1,0-0.2-0.1c-1.4-1.3-3.9-3.4-6.2-5.2c-0.7,2.4-1.6,4.9-2.3,7.3c-1,3.3-1.5,6.7-1.6,10.1
		c4.7-1.8,10.9-5,10.5-10.5c0-0.2-0.1-0.9-0.2-1.3C395.7,293.7,395.7,293.6,395.8,293.5z"/>
	<path class="st0" d="M145.3,456.2c-0.1,0.2-0.2,0.4-0.3,0.7c1-0.7,2.1-1.3,2.9-1.9C146.8,455.1,145.9,455.4,145.3,456.2z"/>
	<path d="M156.4,358.9c0.4,3.8,1,8.4,1.8,12.1c0.8,3.8,3.7,4.2,5.8,6.7c0.6,0.8,0.6,2.1,1.4,2.8c3.3,2.7,7.4-2.6,10.7-2.5
		c1.4,2-0.4,4.1,0.2,6.1c0.7,2.5,2.8,2.2,4.8,2c4.3-0.4,9,0.2,12.3-3.3c2.7-2.9,3.8-8,4-11.9c0.1-2.8-1.2-5.2-1.7-7.9
		c-0.6-2.7,0.3-4.4,0.6-7c0.5-4.9-4.1-7.8-7-11.1c-2.2-2.5-3.9-5.4-5.1-8.5c-0.4-1.2-0.6-3.5-1.4-4.4c-0.7-0.8-1.6-0.5-2.4-1.1
		c-2-1.5-1.8-3.3-2.9-5.5c-0.2-0.4-1.7-3.7-2.5-2.9c-0.8,0.9-3-2-3-2c-0.6-0.8-0.3-2.9-1.1-4c-0.7-1.1-2-2.2-3.2-2.8
		c-2.3-1-4.3-0.1-6.3,1.1c1.3-1.3,2.3-3.1,4-3.9c3.5-1.7,10.9,1.5,10.5-4.4l0.1-0.5c0.7-2.8-5.3-8.6-7.1-10.7c-1.3-1.5-3.6-2.8-5-4
		c-1.8-1.4-3.4-2.1-5.7-2.5c-4.7-0.8-7,1.7-10.5,4.4c-3.5,2.7-8.1,5.3-9.1,10.3c-0.7,3.8-1.4,8.3-0.6,12.2c0.5,2.4,1.5,3.4,2.7,5.4
		c1.4,2.3,1.7,4.7,1.8,7.3c0.2,4.5,0.2,8.4-0.5,12.9c-0.3,1.9-0.8,3.9-1.7,5.4c-1,1.6-2.3,2.6-2.7,4.4l0,1.5
		c-0.1,4.3,8.5,1,10.5-0.3c4.3-2.6,5.7-5,5.3-9.8c-0.4-3.8-0.3-8.2,0.3-11.9c0.7-4,0.1-7.6,2.6-11.1c0.4-0.5,0.7-1,1.1-1.4
		c-0.2,0.4-0.3,0.8-0.5,1.2c-1.4,4.3-0.3,9.2-0.9,13.5C154.9,341.8,155.6,350.1,156.4,358.9z"/>
	<path d="M196.9,433.1c-0.2,4.3-0.5,7.3,1.9,10.8c1.2-2.1,1.1-6.6,1.8-9.1c0.6-2.3,3.1-6,2.2-8.5c-1.2,0-1.9,1.1-2.7,1.8
		c-0.4-1.4-0.3-4.9-2.2-4.7C198.9,426.8,197,429.7,196.9,433.1z"/>
	<path d="M197.5,423.5c0.1,0,0.2,0,0.2,0c-0.1-0.4-0.3-0.8-0.5-1.2L197.5,423.5z"/>
	<path d="M213.9,432.4c-0.2-0.1-0.5-0.2-0.7-0.2c-2.1,2.1,0,9.7,0.3,12.5c2.9,0.3,2.3-5.8,2.8-7.7c0.3-1.3,1.2-3.1,0.4-4.4
		C215.8,431.5,214.6,431.5,213.9,432.4z"/>
	<path d="M232.6,435.1c0.5-1.9,0.9-2.9,1.9-4.7c-1.9-0.8-3.8,0.6-5,2c-0.2-0.2-0.5-0.3-0.7-0.5c-0.1-0.2-0.3-0.3-0.4-0.5
		c-0.2-0.2-0.4-0.5-0.5-0.7c-0.4-0.1-0.3,0.1-0.4,0.2c-0.5-0.1-1-0.1-1.5,0.1c-0.8,5.5,0.5,11-0.3,16.5c1-1.1,2.6-1.8,3.5-2.8
		c1.9-2,0.3-2.1,0.5-4.4C229.6,438.3,232.1,437,232.6,435.1z"/>
	<path d="M207.4,464.2c1.6,0.4,3.1-0.2,3.5-1.7c0.4-1.3-1-3-1.3-4.1c-0.4-1.5-0.4-2.6-0.1-4.1c0.5-3.3,0.5-4.3-3.3-3.7
		c-0.2,0.8,0,1.4,0.6,1.9l-0.6-1.7c0.4,0.8,0.9,1.5,1.5,2c-1.2,2.6-2.3,5.2-2.3,8.2C205.6,462.7,205.3,463.7,207.4,464.2z"/>
	<path d="M224.1,454.8c-0.6-1.8-2.2-2.8-2.2-4.9c0,0,0,0,0,0c-0.4-0.2-0.8-0.4-1.2-0.6c-1,1.1-0.1,2.8-0.2,4.2
		c-0.1,1.5-0.9,3.1-1.3,4.7c-0.7,2.9-2.3,8,1.8,8.1c4.4,0.1,1.5-4.1,2.2-6.7C223.7,457.8,224.8,456.8,224.1,454.8z"/>
	<path d="M222.4,450c-0.1-0.2,0.4-0.5,0-0.5c-0.1,0.2-0.3,0.2-0.4,0.3c0.5,0.3,1,0.6,1.4,1L222.4,450z"/>
	<path d="M249.6,457.4c-0.5-2.6-8.3-7.2-9.4-4.5l0.5,1.4c0.2-0.6,0.5-1,0.7-1.6c1.2,2.9-0.9,6.2-1.3,9c-0.1,0.9-0.7,4.2-0.2,4.8
		c0,0,3.8,1.3,4,1.3c1.2,0.4,3.3,0.7,4.2-0.9c0.8-1.5-0.9-3.3-1.6-4.5c-0.9-1.5-2.1-2.7-1.3-4.3
		C246.2,456.2,248.1,456.5,249.6,457.4z"/>
	<path d="M294.5,397.2c-2-0.7-3.7,0.6-5.8-0.6c-0.8-0.5-1.3-1.6-2-2c-1-0.6-2.1-0.5-3-1l1.5-0.3c-3.1,0.1-5.3,2.1-8.6,0.9
		c-1.3-0.5-2.3-1.7-3.8-2.1c-1.7-0.4-3.2,0.3-5-0.5c-0.4,4.4,0.8,8.1-0.1,12.6c-1,4.5-4.4,10.7-3.1,15.3c0.5,1.9,1.9,3,1.8,5.1
		c0,0.9-0.2,1.4-0.4,1.6c-2.5-1-6.1,0.8-5.6,4.3c0.8,5.6,0.3,10.7-0.7,16.2c-3.2-0.5-1.8,1.4-0.8,3.6c0.7,1.5,0.5,2,0.7,3.4
		c0.1,0.6-0.2,1.1-0.1,1.6c0.1,0.8,1.1,1.2,1.3,2c0.2,0.9-1,2.6-0.1,3.4c0.6,0.5,2.8-0.4,3.5-0.5c2.9-0.4,5-0.5,7.7-2
		c4.9-2.7,10-6.6,13.6-11c4-4.8,6-13,6.7-19.1c0.8-6.6,3.7-12.7,3.9-19.4c0.1-2.5-0.2-4.7,0.5-7.1
		C297.2,399.9,297,398.1,294.5,397.2z"/>
	<path d="M307.7,391.1c1.3,5.8,2,13.2,6.9,17.1c4.8,3.8,9.4,2.7,14.8,0.4c5.2-2.2,11.7-5.6,15.7-9.7c1.8-1.9,1.8-3.3,0.9-5.9
		c-0.4-1.1-0.9-1.6-1.1-2.8c-0.2-1.4,0.3-2.6,0-3.9c-0.3-1.7-1.2-3.3-1.6-5.1c-0.9-0.3-1.1-1.3-1.2-2.3c-1.8,0.1-2.3,1.4-4.1,1
		c-2.3-0.5-2.1-1.8-4.8-0.6c-2.7,1.3-4.9,2.7-7.7,3.8c-2.9,1.1-4.6,3.7-7.6,4.8c-1.8,0.7-3.3,1.8-4.9,2.3c-1.4,0.5-2.8,0.2-4.3,0.6
		l0.9,0.6C308.9,391.2,308.3,391.1,307.7,391.1z"/>
	<path d="M145.9,417.6l2.1,0.3c-0.1,0-0.1-0.1-0.1-0.1C147.2,417.5,146.6,417.4,145.9,417.6z"/>
	<path d="M151.7,415.7c0.7-4.3-1.5-4.5-4.3-6.1c-0.9,0.9-2,1.6-3.3,2.1c-0.1,0.2-0.2,0.4-0.2,0.6c2.4,0.6,2,4.1,3.9,5.3
		C149.8,418.3,151.1,419.5,151.7,415.7z"/>
	<path d="M140,412.2c-0.3,1.9,0.6,7.6,3.9,6.1c2.9-1.4-0.5-4.1-2.2-5.5c-0.1-0.2-0.3-0.4-0.6-0.5c0,0,0,0,0,0l0,0
		C140.8,412.2,140.4,412.2,140,412.2z"/>
	<path d="M187.8,340.1c0,0.1,0.1,0.2,0.2,0.4L187.8,340.1z"/>
	<path d="M187.4,339.5c0-0.3,0-0.5,0-0.5l0.5,1.1c-0.2-0.5-0.2-0.9-0.5-1.1c0-0.1,0-0.1,0-0.1l0,0.1c-0.1-0.1-0.4-0.2-0.7-0.2
		C186.8,339,187.3,339.5,187.4,339.5z"/>
	<path d="M213.6,340.2c0.5,0.5,0.8,0,1.4,0.1l0.7-0.1c-0.3-0.1-0.6-0.1-0.8-0.1c0,0,0.1-0.1,0.1-0.1
		C214.7,339.9,213.8,340.2,213.6,340.2z"/>
	<path d="M254.4,433.1c0,0,0-0.1,0-0.1c0,0,0.1-0.1,0.1-0.1c3.3-4-3.3-8.5-6.5-4.6c-0.9,1-1.4,2.4-1.7,3.8c-0.8,1.1-0.9,1.6-1,3.4
		c-0.1,1.3-0.1,4.2-1.5,4.3c1,1.2,1.7,2.4,2.6,3.6c0.1,0.4,0.3,0.8,0.5,1.1c0,0,0,0,0,0c0,0.3,0,0.6,0.5,0.8
		c2.7,3.3,8.8,0.1,6.7-4.2c0-0.1-0.1-0.1-0.1-0.1c0,0,0-0.1,0-0.1c-0.1-0.5-0.2-0.9-0.2-1.4c-0.1-0.8,0-1.7,0-2.6
		c0.1-1,0.1-2.1,0.4-3C254.1,434.2,254.4,433,254.4,433.1z"/>
	<path d="M199,300.2c0.2,0.4,0.4,0.9,0.8,1.3c2.6,2.9,5.2,5.6,6.8,9.3c0.8,1.9,1.4,4,2,6c-0.9,3.2-1.7,6.4-0.6,9.7
		c2.3,6.5,8.7,10,14.8,12.3c4.4,1.7,9,1.6,13.5,2.9c4.2,1.2,8.3,0.8,12.6,0.1c8.7-1.3,16.8-1.3,25.2-4.4
		c10.3-3.9,15.1-17.7,16.8-27.6c0.7-4,0.2-8.1,1.2-12c1-3.7,0.2-4.4-2.2-7.6c-1.2-1.6-3.5-3.1-4.3-4.9c-0.9-2.1,0.3-4.4-1.5-6.4
		c-1.7-1.8-4.1-1.5-6.1-2.4c-1.6-0.7-2.7-2.1-4-3.2c-3.5-2.8-7.8-4.9-12.4-5.1c-5.6-0.2-11.1-0.6-16.7-0.8c-2.1-0.1-4.7,0.6-6.7,0.3
		c-1.8-0.3-2.2-1.7-3.6-2.1c-1-0.3-2.8,2.4-4,2.9c-2.8,1.3-5.7,2.1-8.4,3.6c-2.6,1.5-5.1,3-5.4,6.2c-0.3,2.9,0.2,4.2-1.6,6.7
		c-1.9,2.5-2.5,3.2-2.3,6.2c0.1,2.8-1.8,5-1.4,7.5c0.1,0.5,0.3,0.8,0.5,1.2c-2.2-0.7-4.2-2-6.2-3.8
		C202.3,292.7,196.9,296.8,199,300.2z"/>
	<path d="M421.1,218.8c-4.9-24.4-10.8-48.6-14.2-73.3c-2.5-18.3-3-40.1-14.5-55.4c-6.9-9.2-18.6-15.2-28.7-20.2
		c-4.7-2.3-9.5-4.4-14.3-6.3c-8.9-5.3-18.5-9.4-28.8-12.2c-18.4-5.1-38.9-6.1-60.9-3.1c-37.3,5.1-66.4,20.4-66.7,20.6l-0.4,0.2
		c0,0-61.6,189.9-62.2,191c-4.5,7.6,3.1,15.1,9.5,19.5c-2,3.3-4.4,6.4-7.1,9.2c-3.9,4-7.2,8.1-7.6,13.9c-0.4,6.1,1.3,12.2,3.2,18
		c2.1,6.4,3.7,12.2,2.4,19c-1.1,6.1-3.6,11.9-4,18.1c-0.8,11.6,0.9,23.9,4.5,35.1c-10,4.9-34.5,26.4-40.7,8.3
		c-2.6-7.6,3.7-11.7,10.2-11.6c1.3-5.8-7.6-1.4-9.5,0.1c-3.8,3-6.9,7.4-8.2,12.2c-2.3,8.3,5.5,15.8,13,17.1
		c13.6,2.3,25.1-7.8,37.3-12.5c-2,3.4-4.2,7.1-2.9,11.2c0.6,1.8,1.7,3.1,3,4.5c1.8,2.1,2.9,4,3.8,6.6c1.5,4.2,3.1,7.4,6.5,10.3
		c1.6,1.4,8.4,6.4,5.2,8.1c-1.3,0.7-3.9,0.2-5.5,0.8c-1.7,0.6-3.2,1.6-4.4,3c-0.9,1.2-1.4,2.5-1.8,3.8c-0.9,0.2-1.7,0.7-2.1,1.5
		c-2,3.4-0.9,6.3,1.6,8.3c0.5,2.4,0.4,5.1,0.6,7.2c0.3,4.7,0,9-0.6,13.6c-1.2,8.1-0.1,16,1.2,24c2.2,14.1,7.9,27.4,22.9,30.5
		c15.7,6,31.1,9.3,47.8,6.6c16.9-2.7,33.1-8.3,49.7-12.4c15.6-3.8,30.2-8.3,44.6-15.6c5.4-2.7,11.5-4.8,15.3-9.8
		c4.4-5.8,5.9-14,7.5-20.9c0.9-3.7,1.7-7.4,2.6-11c0.3-1,0.7-1.9,1.1-2.9c2.8-6.1,8.6-10.9,13.1-15.9c6.9-7.7,17.7-18.1,19.5-28.5
		c1.4-8,1-16.2,5.6-24c2.7-4.7,9.8-7.6,11-12.9c1-4.2-2-11.4-2.8-15.5c-0.7-3.5-1.6-6.3-1.3-10c0.3-3,2-5.9,0.8-8.7
		c-2,0.3-3.7,0.5-5.1,0.7c-8.3-1.6-14,7-16.6,14.8c-4.2,4.2-1.9,12.5-1.1,17.5c0,0.1,0,0.1,0.1,0.2c-0.3,1.9-0.6,3.8-0.8,5.7
		c-0.9,9,2.1,23.8-2.4,31.8c-2.6,4.6-9.7,6.5-12.3,11.8c-0.3,0.7-0.6,1.4-0.8,2.1c-1.8,1.1-3.5,2.6-5,4.5c-4.1,5.1-6.3,11.8-8.2,18
		c-2.3,7.5-3.7,15.2-5.6,22.8c-1.5,6-2.8,14.4-8.3,18.1c-6,4.1-13.7,6.9-20.3,9.9c-7.4,3.4-15,5.8-22.8,7.8
		c-15.7,3.9-31.2,8.8-47,12.3c-9.4,2.1-18.9,3.9-28.5,3.1c-9.4-0.8-18.4-3.8-27.2-7.1c-0.4-0.1-0.7-0.2-1.1-0.2
		c-14.6-2.7-16.2-19.7-17.7-31.8c-0.5-4.1-0.9-7.9-0.4-12c0.6-4.4,1.3-8.7,1.1-13.2c-0.2-4.1-0.1-8.6-1.1-12.7c0.2-1,0.1-2.6,0.2-4
		c1.2-1.2,2.7-2.4,3.9-0.4c-0.4,1-1.2,1.8-2.3,1.9c-0.4,1.6,1.1,3,1.8,4.2c0.4,0.7,0.4,1.1,1.1,1.8c0.6,0.7,1.5,1,2.1,1.6
		c1.1,1.2,1.2,3.2,2.5,1c0.6-1,0.3-3.2,0.5-4.4c2.4-1.9,2.8,2.7,4.3,3.8c1,0.8,4.7,1.5,5.5,0.3c1.3-1.9-2.8-3.5-1.7-5.2
		c1.3-2,3.3,2.7,4.1,2.9c2.1,0.5,3.7-2.2,5.6-2.2c0.9,2.6,1.2,6.6,1.4,8c0.8,3.8,1.6,8.3,4.6,11c3.7,3.4,9.8-1.7,6.1-5.1
		c-0.1-0.1-0.2-0.2-0.3-0.3c1.1-1.3,3.2-1.3,4.6-2.6c2.8-2.4,4.2-5.8,8.4-4.8c0.4-2.2-2.2-3.9-3-5.8c-0.9-2.1-0.2-4.3-0.7-6.6
		c-0.7-3.3-1.7-2.5-4.6-2.2c-2.4,0.2-4.1-0.3-6-1.9c-3.2-2.8-4.3-7-2.4-10.8c1.8-3.6,2.2-7.9,3.8-11.7c0.8-2,2.7-4.8,2.7-6.9
		c-0.4,0.3-2,2.7-2.3,2.8c-1.2,0.3-1.6-1.2-2.4-2.2c-1.2-1.5-2.6-3.4-4.3-4.5c-1.8-1.1-1.9-0.2-3.4-0.4c-1-0.2-1.6-0.7-2.5-1
		c-2-0.6-4.9,0-3,3.1c-1.7-0.6-2.3-2.5-3.5-3.7c-1.4-1.3-3.1-1.4-4.7-2.3c-1.6-0.9-2.5-3.5-4.4-3.1c-0.4,0.1-0.7,0.3-1,0.6
		c-2.1,0.4-3.9,2.4-3.2,4.9c-0.1,0.1-0.2,0.2-0.3,0.3c0.1,0,0.2,0,0.4,0.1c0,0.1,0.1,0.2,0.1,0.3c0.2,0.5,0.4,1,0.6,1.5
		c0,0.1,0,0.2,0,0.3c-0.5,0.3-1,0.6-1.5,1.1c-1.6,1.7-2.3,4.2-2.9,6.4c-0.4,1.3-0.5,2.5-0.4,3.6c-0.2-0.2-0.5-0.4-0.7-0.7
		c-1.7-2.1-2.3-4.9-3.3-7.4c-0.9-2.3-2-4.4-3.6-6.2c-0.5-0.6-2.2-1.8-2.4-2.6c-0.2-1.1,1.8-3.9,2.3-4.9c1.1-1.9,1.9-4.2,2.9-6.2
		c4.5-0.4,9.2-0.2,13.5,0.4c3.7,0.5,8,2.3,11.6,1.8c1.7-5.8,3.1-13.3-3.7-15.6c-4.9-1.7-12.1-1.7-18.9-1c-2.3-0.6-4.8,0.3-7.2,0.3
		c-3.5-11-5.5-24-3.4-35.1c1.1-6.1,3.6-11.9,4-18.1c0.4-5.7-0.9-11.1-2.7-16.5c-1.8-5.5-4.4-12.3-3.2-18.2
		c1.1-5.5,7.5-9.3,10.6-13.8c6.3-9.1,10.3-19.3,10.7-30.4c14.6-4.5,29.5-8,44.5-10.6c48.8-8.4,101-6.8,146.7,13.9
		c13.3,6,25.8,13.6,37.4,22.5c-0.9,4.2-2.7,8.3-3.7,12.4c-2.6,10.4-0.4,21.4,0.5,31.9c0.8,9.4,0.7,18.9,1.8,28.3
		c0.8,6.7,3.2,16.9-1,22.9c-2.7,3.8,3.2,7.9,5.9,4.1c4.4-6.3,3.6-14.9,2.9-22.1c-0.9-9.7-1.3-19.3-2-29c-0.4-5.9-1.4-12-1.9-18
		c0.7,0.1,1.4,0.1,2.2-0.2c9.1-3.3,19.8-11.7,15.7-22.8c-0.6-1.6-21.9-185.6-21.9-185.6c3.4,11,4.1,23.5,5.5,34
		c6.3,45.3,21.7,89.8,22.4,135.7c0.4,27.2-5.1,53.5-17.8,77.6c-2.1,3.9,4.5,6.3,6.5,2.4c11.6-22.1,17.6-46.4,18.2-71.4
		c0.5-23.7-3.3-47.2-7.9-70.4c-4.8-24-10.7-47.7-14.1-72c-2.4-17.2-3-37.7-13-52.6c0.8,0.7,1.6,1.4,2.4,2.2
		c13,12.8,13.2,34.8,15.6,51.7c3.3,23.3,8.3,46.2,13,69.2c4.8,23,9.2,46.3,9.5,69.8c0.3,27.3-5.2,53.7-17.8,78
		c-2.1,4,4.5,6.4,6.5,2.4c11.5-22.3,17.5-46.7,18.2-71.7C429.6,266.3,425.8,242.4,421.1,218.8z M145,456.9c0.1-0.2,0.2-0.5,0.3-0.7
		c0.5-0.8,1.5-1.1,2.6-1.3C147.1,455.5,146,456.2,145,456.9z M262.3,141c-0.2-3.1-0.5-6.1,0.2-9c1-1.1,2.6-1,4.9-0.6
		c1.9,0.3,4.1,0.6,5.9-0.3c0.1,0,0.1,0,0.2,0c1.4,0.3,2.3,0.6,2.7,1.2c-3.4,9.2-3.7,19.4-3.3,26.4l0,0.4l0.2,0.3
		c1.1,1.9,3.5,2.7,5.6,2.1c2.4-0.6,4-2.1,4.3-4c0.9-5.2,1.1-10.4,1.3-15.5c0.1-3,0.2-5.9,0.4-8.7c2.9-0.1,6.3-0.1,8.8,1.3l-3.3,27.2
		c-1.3,4.4-5.3,8-10.1,9c-1.2-0.3-2.4-0.6-3.7-0.8c-6.3-1.4-12.8-2.8-15-8.7c0.2-2,0-4-0.2-5.9c-0.4-3.2-0.7-6,1.1-8.3l0.3-0.4
		l0-0.4C262.6,144.5,262.4,142.7,262.3,141z M360,162.7c-0.2-1.3-1.1-2.3-1.7-3l-0.5-0.6l-3.1-0.4l-0.5,0.4
		c-0.6,0.4-1.4,0.9-2.2,1.4c-2.5,1.4-5.6,3.3-6.2,6.9l0,0.1c0,0.6-0.1,1.2-0.2,1.8c-0.4,3-0.8,6.8,2.5,9.4l0.4,0.3h0.5
		c0.3,0,0.7,0.2,1.1,0.3c1.1,0.4,3.1,1.2,4.7-0.8c0.5-0.7,0.7-1.6,0.4-2.4c-0.3-1.1-1.2-2-1.9-2.3l-1.1-0.3c0.1-0.4,0.1-0.7,0.2-1.1
		c0.2-1.6,0.5-3.2,0.9-4.8c5,0.6,10.9,2.4,16.1,4l0.5,0.1l-5,20.8c-0.1,0.2-0.2,0.3-0.3,0.4c-0.4,0.1-1.5-0.4-2.2-0.8
		c-0.9-0.4-1.8-0.9-2.7-1c-0.2-0.1-0.3-0.4-0.5-1.2c-0.2-0.8-0.5-2-1.5-2.8l-0.7-0.5l-0.8,0.4c-4.5,2.2-10.1,0.6-15.6-0.9l-0.1,0
		c-6.2-4.6-8-12.4-7.5-18.2c0.9-9.5,6.1-16.8,14.1-19.4c5.6-1.9,13.7,0.4,18.4,3.6c2.7,2.7,4.3,5.2,5.3,8.2c0,1.1,0.4,2.2,0.8,3.1
		c0.7,1.6,0.8,2.2,0.2,2.6L360,162.7z M212.6,195.4c-0.3-1.8-0.9-3.6-1.3-5.3c-0.9-3.2-1.8-6.2-1.7-9.4c0.8-1.4,2.5-1.6,5-1.7
		c2-0.1,4.3-0.2,6.1-1.6c0.1,0,0.1,0,0.2,0c1.5,0,2.6,0.1,3.1,0.7c-1.6,10.2,0.3,20.9,2.2,28l0.1,0.3l0.2,0.3c1.6,1.6,4.1,2,6.1,1
		c2.3-1.2,3.6-3,3.6-5c-0.1-5.5-1.1-11-2-16.3c-0.5-3.2-1-6.2-1.4-9.2c3-0.7,6.6-1.5,9.5-0.5l2.4,28.9c-0.4,4.9-3.8,9.5-8.6,11.5
		c-1.3-0.1-2.6-0.1-3.9-0.1c-6.8-0.1-13.8-0.1-17.4-5.8c-0.2-2.1-0.8-4.1-1.5-6c-1.1-3.2-2-6-0.7-8.9l0.2-0.4L212.6,195.4z
		 M299,140.9c-0.5-0.8-0.6-1.9-0.4-3c2.4,0.9,5.1,1.3,7.7,1.6c1.2,0.2,2.5,0.3,3.7,0.6c1.5,2.6,2.7,5.4,3.8,8.4c1.2,3,2.4,6,4.1,8.9
		l0.8,1.3l2.5-1.9l-0.1-0.8c-0.3-2.9,0.3-6.5,0.8-9.9c0.2-1.4,0.5-2.9,0.6-4.3l0,0c2.8,0.1,5.6,0.3,8.2,1.3
		c0.3,7.5-1.2,14.7-2.7,22.3c-0.9,4.5-1.8,9.1-2.4,13.8c-1.2,0.8-3.5,0.4-5.8-0.1c-1.5-0.3-3-0.6-4.5-0.6c-0.1,0-0.1,0-0.2,0l0,0
		c-1.1-5.7-2.8-12.7-6.3-18.7l-0.1-0.1c-0.3-0.4-0.7-0.7-0.8-0.8l-1.7-1.2l-0.4,2c-0.4,1.8-0.7,3.7-1.1,5.5
		c-0.7,3.5-1.3,7.1-2.2,10.3c-1.5-0.3-3-0.1-4.3,0.1c-1.3,0.2-2.5,0.3-3.8,0c-0.2-5.4,1-11.1,2.2-17.1c1.1-5.6,2.2-11.4,2.3-17
		l0-0.4L299,140.9z M286,219.1c-0.6-1.7,0.1-3.5,0.8-5.6c0.4-1,0.7-2.1,1-3.1c3.3-6.5,4.9-13.6,6.4-20.5c0.7-3.1,1.4-6.4,2.2-9.5
		c1.2,0.2,2.3,0.2,3.5,0.3c2.7,0.2,5.2,0.4,7.2,1.4l0.1,1.4c-0.7,1.7-0.6,3.2-0.6,4.6c0,1.1,0,2.1-0.2,3.1l-0.4,1.7l1.7,0
		c2.5,0.1,3.7-1.8,4.5-3.2c0.4-0.7,0.8-1.3,1.3-1.7c1.1-0.6,1.8-1.6,2.5-2.5c0.4-0.5,0.7-1,1.1-1.3c2,1.2,4.5,1.7,6.8,2.2
		c1.5,0.3,2.9,0.6,4.1,1c-0.1,0.1-0.1,0.2-0.2,0.3c-0.3,0.5-0.9,1.2-0.9,2.1c-3.1,1.3-5.4,4-7.5,6.4c-0.5,0.6-1,1.1-1.5,1.7
		l-0.3,0.3l-0.1,0.4c-1.2,7,0.5,13.6,2.1,20.1c0.6,2.5,1.3,5.1,1.7,7.6c-0.1,0.4-0.3,0.6-0.3,0.6c-0.3,0.1-1.3-0.2-1.9-0.4
		c-0.8-0.3-1.7-0.6-2.7-0.6c-0.1,0-0.3,0-0.4,0c-2.8-0.1-5.8-0.3-8.3-1.4c-0.8-2-1-4.2-1.2-6.5c-0.1-2-0.3-4.1-0.9-6.1l-0.4-1.3
		l-1.3,0.4c-2.4,0.8-3.5,3-4.5,4.9c-0.4,0.8-0.8,1.6-1.2,2.2l-0.1,0.2l-0.1,0.2c-0.2,0.7-0.3,1.3-0.4,1.8c-0.1,0.5-0.2,0.9-0.3,1.2
		c-2.3-0.8-4.9-1.2-7.3-1.6C288.7,219.6,287.3,219.4,286,219.1z M328.7,218.3c1.1-1.1,2.1-2.1,3.3-3l1-0.7l-0.6-1
		c-2.7-4.7-1.4-12.4,1.5-16.7c4.6-4.7,9.9-6,16.1-4c1.6,1.3,3.4,2.2,5.1,3c0.7,0.4,1.5,0.7,2.2,1.1c2.3,1.2,4.8,2.7,5.7,5.1
		c-1.3,2.8-4.9,4.3-8,5.6l-1,0.4l0.9-1.4l-0.9-0.8c-1.6-1.4-3.6-3.2-6.8-3.3c-0.7-0.1-1.3,0.1-1.7,0.6c-0.6,0.6-0.9,1.5-0.8,2.5
		l0,0.2l0.1,0.2c1.2,2.6,4.2,2.7,6.1,2.8c0.6,0,1.1,0,1.4,0.1l0.9,0.2l0.2-0.3l0.6,0.9c0.1,0.2,0.2,0.4,0.4,0.7
		c0.6,1.2,1.7,3.3,3.8,3.6c4,3.3,4.7,8.7,5.2,13.5c-1.7,4.8-4.9,8.4-8.7,9.8c-5.5,1.1-13.8,1-19.5-2.8c-0.6-0.6-1.1-1.2-1.7-1.7
		c-3.5-3.6-6.9-7.1-7.5-12C326.9,220.1,327.8,219.2,328.7,218.3z M255.6,161.8c-1.9,4.2-5.9,7.2-9.6,9.5c-6.2,1.7-14.4,1.4-18.9-4.3
		c-4.6-5.8-7.5-16.4-3.9-24.6c2.8-6.3,9-10.5,17.4-11.8c1.3,0.4,2.6,0.7,3.8,0.9c3,0.6,5.7,1.1,7.5,3.7c-0.1,1.8,0.8,3.1,1.6,4.2
		c0.4,0.5,0.7,1.1,1,1.6C256.6,146.9,258.5,155.4,255.6,161.8z M247.1,181.2l-0.4-0.4c-0.5-0.5-0.5-1.5-0.5-2.5c0-0.2,0-0.3,0-0.5
		c1.1-0.2,2.4-0.1,3.7-0.1c2.4,0.1,5.1,0.2,7.4-1.3c9.3-1.1,16.4-0.2,21.8,2.8c3.9,4.3,3.2,10.2,2.2,15c-1.1,2-2.8,3.7-4.6,5.5
		l-0.9,0.9l0.8,1c1.2,1.5,1.9,3.3,2.6,5.3c1,2.7,1.9,5.4,4.5,7.3c-0.3,1-0.6,2.1-0.6,3.2c-0.7-0.1-1.4-0.2-2.2,0.1
		c-1,0.1-1.9,0.3-2.8,0.5c-1.9,0.4-3.6,0.8-4.8,0c-3.2-2.2-4.5-5.3-5.8-8.7c-0.8-2-1.7-4.1-3-6l-0.4-0.5l-0.6-0.1
		c-1.6-0.2-2.5,0.6-3,1.2l-0.7,0.7l0.5,0.9c0.9,1.6,0.9,3.5,0.9,5.4c0,1.2,0,2.4,0.2,3.6l0.1,4.3c-0.3-0.1-0.7-0.2-1.1-0.3
		c-0.9-0.3-1.8-0.6-2.8-0.5c-0.9,0.1-1.7,0.7-2.2,1.5c-0.9-0.1-1.8,0-2.7,0.1c-1.9,0.2-2.9,0.2-3.5-0.5L247.1,181.2z M203.9,138.1
		c0.4-1.1,0.7-2.2,1.2-3.1l2.2-1.9c1.8,0.6,3.5,0.1,5.1-0.3c2.2-0.6,3.4-0.8,4.4,0.4c-0.3,0.8-0.8,1.5-1.3,2.3c-0.9,1.4-1.9,3-2.2,5
		c-1.5,1.9-2.1,3.9-2.7,5.9c-0.6,2-1.2,3.9-2.6,5.3l-0.2,0.2l-0.1,0.2c-3.1,6.6-1.5,14.3,0.8,21.6l-0.3,0.4l-10.3,1.3
		c-2-1.9-2.1-4.9-2.3-8.2c-0.1-2.7-0.3-5.4-1.4-7.7c-1.8-3.8-4.3-7-6.8-10.1c-2.8-3.7-5.6-7.1-7.2-11.4c1.8-0.1,3.6-0.5,5.4-0.8
		c2.2-0.4,4.4-0.8,6.3-0.8c1.4,0.9,2.1,2.3,3,3.9c0.7,1.4,1.5,2.8,2.8,4l0.6,0.5l0.8-0.2C201.9,143.8,203,140.8,203.9,138.1z
		 M203.4,178.7c0.2,0.1,0.5,0.2,0.7,0.3c0.4,0.1,0.8,0.3,0.8,0.4c0.6,1.3,0.5,2.7,0.3,4.4c-0.2,1.8-0.4,3.8,0.5,5.8
		c-0.4,0.2-0.9,0.3-2,0.3c-1.5,0-3.5,0.1-4.7,2.1l-0.4,0.7l0.4,0.7c1.1,1.9,1.1,3.9,1,6.3c0,1.6-0.1,3.3,0.3,5.1
		c0,3.3,0.7,6.3,1.3,9.2c0.4,2.1,0.8,4,1,5.9c-1,1.3-2.8,1.3-5.5,1.2c-1.7-0.1-3.4-0.1-4.9,0.3c-0.5,0-1.6,0-1.8-0.2
		c0,0,0-0.1,0-0.4l0-0.2l-4.2-25.4l-0.2-0.3c-0.8-1.2-1.8-1.6-2.9-1.6c-1.2,0-2.5,0.6-3.4,1c-0.9,0.4-1.9,0.9-2.3,0.7
		c-0.1,0-0.4-0.3-0.7-1.2c-0.1-1.3-0.5-2.7-0.9-4c-0.6-2.2-1.3-4.2-0.5-5.6c5-0.6,9.5-1.7,13.9-2.7
		C194,180.2,198.5,179.2,203.4,178.7z M138.9,263.3c2-1.4,4.8-2.4,7.6-3.2c-0.4,4.1-1.4,8.1-2.8,11.9
		C140.1,269.4,135.8,265.5,138.9,263.3z M385.4,305.7c0.1-3.4,0.6-6.8,1.6-10.1c0.7-2.4,1.6-4.8,2.3-7.3c2.3,1.8,4.8,3.8,6.2,5.2
		c0.1,0.1,0.2,0.1,0.2,0.1c0,0.1,0,0.2,0,0.4c0,0.5,0.2,1.1,0.2,1.3C396.4,300.7,390.1,303.8,385.4,305.7z"/>
	<path d="M101.4,389.5c-0.1,0-0.3,0-0.4,0c0,0.2-0.1,0.4-0.2,0.6L101.4,389.5z"/>
	<path d="M257.5,403.3c-1.3-4.9-4.2-9.5-7.8-12.6c-1.8-1.5-10.3-6.1-9-0.1c6.2-0.1,12.2,4.1,9.7,12c-6.3,19.8-32-6.3-40.2-9.2
		c-7.6-2.8-22.2-4.7-30.2-1.7c-6.5,2.4-5.1,10.1-3.5,16.1c3.5,0.5,7.5-1.3,11.1-1.8c5.4-0.8,11.8-1,17.2,0.3
		c13.5,3.3,25.8,17.4,40.5,14.7C252.2,419.6,259.7,411.8,257.5,403.3z"/>
	<path d="M240.8,391.3c-0.1-0.2-0.1-0.4-0.2-0.6c-0.1,0-0.3,0-0.4,0L240.8,391.3z"/>
	<path class="st1" d="M262.3,147c-1.8,2.4-1.4,5.1-1.1,8.3c0.2,1.9,0.5,3.9,0.2,5.9c2.2,5.9,8.7,7.3,15,8.7c1.2,0.3,2.5,0.5,3.7,0.8
		c4.8-1,8.8-4.6,10.1-9l3.3-27.2c-2.5-1.4-5.9-1.4-8.8-1.3c-0.2,2.8-0.3,5.7-0.4,8.7c-0.2,5.1-0.4,10.4-1.3,15.5
		c-0.3,1.9-1.9,3.4-4.3,4c-2.1,0.6-4.4-0.3-5.6-2.1l-0.2-0.3l0-0.4c-0.4-7-0.1-17.2,3.3-26.4c-0.4-0.6-1.3-0.9-2.7-1.2
		c-0.1,0-0.1,0-0.2,0c-1.9,0.9-4,0.6-5.9,0.3c-2.3-0.4-3.9-0.5-4.9,0.6c-0.6,3-0.4,5.9-0.2,9c0.1,1.7,0.3,3.5,0.2,5.2l0,0.4
		L262.3,147z"/>
	<path class="st1" d="M296.9,158.6c-1.2,6-2.3,11.8-2.2,17.1c1.2,0.3,2.5,0.1,3.8,0c1.3-0.2,2.7-0.3,4.3-0.1
		c0.9-3.2,1.5-6.8,2.2-10.3c0.3-1.8,0.7-3.7,1.1-5.5l0.4-2l1.7,1.2c0.1,0.1,0.5,0.4,0.8,0.8l0.1,0.1c3.6,6.1,5.3,13.1,6.3,18.7l0,0
		c0.1,0,0.1,0,0.2,0c1.5,0,3,0.3,4.5,0.6c2.3,0.4,4.5,0.9,5.8,0.1c0.5-4.7,1.5-9.3,2.4-13.8c1.5-7.6,3-14.7,2.7-22.3
		c-2.6-0.9-5.3-1.2-8.2-1.3l0,0c-0.2,1.4-0.4,2.9-0.6,4.3c-0.5,3.4-1.1,7-0.8,9.9l0.1,0.8l-2.5,1.9l-0.8-1.3
		c-1.7-2.9-2.9-5.9-4.1-8.9c-1.2-3-2.3-5.8-3.8-8.4c-1.2-0.2-2.5-0.4-3.7-0.6c-2.6-0.3-5.3-0.7-7.7-1.6c-0.2,1.1-0.1,2.1,0.4,3
		l0.2,0.3l0,0.4C299.1,147.3,298,153,296.9,158.6z"/>
	<path class="st1" d="M371.7,163.2c-0.4-0.9-0.8-2-0.8-3.1c-1-3-2.6-5.5-5.3-8.2c-4.7-3.3-12.9-5.5-18.4-3.6
		c-8,2.6-13.2,9.9-14.1,19.4c-0.5,5.8,1.3,13.7,7.5,18.2l0.1,0c5.5,1.5,11.1,3.1,15.6,0.9l0.8-0.4l0.7,0.5c1,0.8,1.3,1.9,1.5,2.8
		c0.2,0.8,0.3,1.1,0.5,1.2c0.9,0.1,1.8,0.6,2.7,1c0.7,0.4,1.8,0.9,2.2,0.8c0.1,0,0.2-0.2,0.3-0.4l5-20.8l-0.5-0.1
		c-5.2-1.6-11.1-3.4-16.1-4c-0.5,1.5-0.7,3.1-0.9,4.8c-0.1,0.4-0.1,0.7-0.2,1.1l1.1,0.3c0.7,0.4,1.6,1.2,1.9,2.3
		c0.2,0.8,0.1,1.7-0.4,2.4c-1.6,2-3.6,1.3-4.7,0.8c-0.4-0.2-0.9-0.3-1.1-0.3h-0.5l-0.4-0.3c-3.3-2.5-2.8-6.3-2.5-9.4
		c0.1-0.6,0.1-1.2,0.2-1.8l0-0.1c0.5-3.7,3.7-5.5,6.2-6.9c0.8-0.5,1.6-0.9,2.2-1.4l0.5-0.4l3.1,0.4l0.5,0.6c0.6,0.7,1.5,1.7,1.7,3
		l11.9,3.1C372.4,165.4,372.3,164.9,371.7,163.2z"/>
	<path class="st1" d="M175.4,184.1c-0.7,1.3-0.1,3.4,0.5,5.6c0.4,1.3,0.8,2.7,0.9,4c0.3,1,0.6,1.2,0.7,1.2c0.4,0.2,1.5-0.3,2.3-0.7
		c0.9-0.4,2.1-1,3.4-1c1,0,2,0.4,2.9,1.6l0.2,0.3l4.2,25.4l0,0.2c0,0.3,0,0.4,0,0.4c0.2,0.2,1.3,0.2,1.8,0.2
		c1.5-0.4,3.2-0.4,4.9-0.3c2.8,0.1,4.6,0.1,5.5-1.2c-0.2-1.9-0.6-3.8-1-5.9c-0.6-2.9-1.2-5.9-1.3-9.2c-0.4-1.7-0.3-3.4-0.3-5.1
		c0-2.4,0.1-4.4-1-6.3l-0.4-0.7l0.4-0.7c1.1-2.1,3.2-2.1,4.7-2.1c1.1,0,1.6-0.1,2-0.3c-0.8-2.1-0.6-4-0.5-5.8c0.2-1.6,0.3-3-0.3-4.4
		c-0.1-0.1-0.5-0.3-0.8-0.4c-0.2-0.1-0.5-0.2-0.7-0.3c-4.9,0.5-9.4,1.6-14.1,2.7C184.9,182.4,180.4,183.5,175.4,184.1z"/>
	<path class="st1" d="M213.2,205.2c0.6,1.9,1.3,3.9,1.5,6c3.5,5.7,10.6,5.7,17.4,5.8c1.3,0,2.7,0,3.9,0.1c4.8-2,8.2-6.6,8.6-11.5
		l-2.4-28.9c-2.9-1-6.5-0.2-9.5,0.5c0.4,3,0.9,6,1.4,9.2c0.9,5.3,1.8,10.8,2,16.3c0.1,2-1.2,3.8-3.6,5c-2,1-4.5,0.6-6.1-1l-0.2-0.3
		l-0.1-0.3c-1.9-7.2-3.7-17.8-2.2-28c-0.5-0.6-1.6-0.7-3.1-0.7c-0.1,0-0.1,0-0.2,0c-1.7,1.4-4,1.5-6.1,1.6c-2.5,0.1-4.2,0.3-5,1.7
		c0,3.2,0.8,6.2,1.7,9.4c0.5,1.7,1,3.5,1.3,5.3l0.1,0.4l-0.2,0.4C211.2,199.1,212.1,201.9,213.2,205.2z"/>
	<path class="st1" d="M252.5,219.7c0.9-0.1,1.8-0.2,2.7-0.1c0.5-0.9,1.3-1.4,2.2-1.5c1-0.2,2,0.2,2.8,0.5c0.4,0.1,0.8,0.3,1.1,0.3
		l-0.1-4.3c-0.2-1.2-0.2-2.5-0.2-3.6c0-2,0-3.8-0.9-5.4l-0.5-0.9l0.7-0.7c0.5-0.6,1.4-1.4,3-1.2l0.6,0.1l0.4,0.5c1.3,1.9,2.2,4,3,6
		c1.4,3.3,2.7,6.5,5.8,8.7c1.2,0.8,2.9,0.5,4.8,0c0.9-0.2,1.9-0.4,2.8-0.5c0.7-0.3,1.5-0.2,2.2-0.1c0-1.1,0.3-2.1,0.6-3.2
		c-2.5-1.9-3.5-4.7-4.5-7.3c-0.7-1.9-1.4-3.8-2.6-5.3l-0.8-1l0.9-0.9c1.8-1.8,3.4-3.4,4.6-5.5c1-4.8,1.7-10.7-2.2-15
		c-5.3-3-12.5-4-21.8-2.8c-2.3,1.4-5,1.3-7.4,1.3c-1.3,0-2.6-0.1-3.7,0.1c0,0.2,0,0.3,0,0.5c0,1,0.1,2,0.5,2.5l0.4,0.4l1.9,38
		C249.6,220,250.6,220,252.5,219.7z M258.8,187.1l0.2-0.9l0.9-0.2c0.3-0.1,0.6-0.1,0.9-0.2c2.1-0.5,5.2-1.2,7.1,1l0.5,0.5l-0.2,0.7
		c-0.8,3.1-3.8,4.2-6,4.9c-0.3,0.1-0.7,0.2-1,0.4l-0.9,0.4l-0.6-0.8C258.2,191.2,258.5,188.6,258.8,187.1z"/>
	<path d="M260.3,193.8l0.9-0.4c0.3-0.1,0.6-0.2,1-0.4c2.2-0.8,5.2-1.8,6-4.9l0.2-0.7l-0.5-0.5c-1.9-2.2-5-1.5-7.1-1
		c-0.3,0.1-0.6,0.1-0.9,0.2l-0.9,0.2l-0.2,0.9c-0.3,1.4-0.6,4.1,0.8,5.8L260.3,193.8z"/>
	<path class="st1" d="M297.4,221.4c0.1-0.3,0.2-0.7,0.3-1.2c0.1-0.5,0.2-1.1,0.4-1.8l0.1-0.2l0.1-0.2c0.4-0.6,0.8-1.4,1.2-2.2
		c1-1.9,2.1-4.2,4.5-4.9l1.3-0.4l0.4,1.3c0.6,2,0.8,4.1,0.9,6.1c0.2,2.3,0.3,4.5,1.2,6.5c2.6,1.1,5.5,1.3,8.3,1.4c0.1,0,0.3,0,0.4,0
		c0.9,0,1.8,0.3,2.7,0.6c0.6,0.2,1.6,0.6,1.9,0.4c0.1,0,0.2-0.2,0.3-0.6c-0.5-2.5-1.1-5.1-1.7-7.6c-1.6-6.4-3.3-13.1-2.1-20.1
		l0.1-0.4l0.3-0.3c0.5-0.5,1-1.1,1.5-1.7c2.1-2.4,4.4-5.1,7.5-6.4c0.1-1,0.6-1.7,0.9-2.1c0.1-0.1,0.1-0.2,0.2-0.3
		c-1.3-0.4-2.7-0.7-4.1-1c-2.4-0.5-4.8-1-6.8-2.2c-0.4,0.4-0.7,0.8-1.1,1.3c-0.7,0.9-1.4,1.9-2.5,2.5c-0.5,0.4-0.9,1-1.3,1.7
		c-0.9,1.4-2.1,3.3-4.5,3.2l-1.7,0l0.4-1.7c0.3-1,0.3-2,0.2-3.1c0-1.4-0.1-3,0.6-4.6l-0.1-1.4c-2-1.1-4.5-1.3-7.2-1.4
		c-1.2-0.1-2.3-0.2-3.5-0.3c-0.9,3.1-1.6,6.4-2.2,9.5c-1.5,6.9-3,14-6.4,20.5c-0.2,1.1-0.6,2.1-1,3.1c-0.7,2.1-1.4,3.9-0.8,5.6
		c1.4,0.3,2.8,0.5,4.2,0.7C292.6,220.2,295.1,220.6,297.4,221.4z"/>
	<path class="st1" d="M335.1,234.7c5.7,3.8,14,3.9,19.5,2.8c3.8-1.4,7.1-5,8.7-9.8c-0.6-4.8-1.3-10.2-5.2-13.5
		c-2.1-0.3-3.2-2.4-3.8-3.6c-0.1-0.3-0.3-0.5-0.4-0.7l-0.6-0.9l-0.2,0.3l-0.9-0.2c-0.3-0.1-0.9-0.1-1.4-0.1
		c-1.9-0.1-4.9-0.2-6.1-2.8l-0.1-0.2l0-0.2c-0.1-0.9,0.2-1.9,0.8-2.5c0.5-0.4,1.1-0.6,1.7-0.6c3.2,0,5.2,1.8,6.8,3.3l0.9,0.8
		l-0.9,1.4l1-0.4c3.2-1.4,6.7-2.9,8-5.6c-0.9-2.4-3.4-3.9-5.7-5.1c-0.7-0.4-1.5-0.8-2.2-1.1c-1.7-0.8-3.5-1.7-5.1-3
		c-6.3-2-11.5-0.7-16.1,4c-2.9,4.3-4.2,12-1.5,16.7l0.6,1l-1,0.7c-1.2,0.9-2.2,2-3.3,3c-0.9,0.9-1.8,1.8-2.8,2.7
		c0.6,4.9,4,8.4,7.5,12C333.9,233.6,334.5,234.2,335.1,234.7z M336.3,217c0.5,0.4,1,0.8,1.5,1.3c1.9,1.3,4.5,2,6.9,2.7l1.6,0.4
		l0.3,0.3c1.4,1.6,1,3.4,0.9,4.1l-0.2,1.1l-1.1,0c-0.1,0-0.2,0-0.3,0c-3.9,0-6.2-2.5-8.2-4.8c-0.5-0.6-1-1.1-1.6-1.7
		c-0.5-0.4-1.1-0.8-1.5-1.4L336.3,217z"/>
	<path d="M337.6,222.1c2,2.2,4.3,4.8,8.2,4.8c0.1,0,0.2,0,0.3,0l1.1,0l0.2-1.1c0.1-0.7,0.5-2.5-0.9-4.1l-0.3-0.3l-1.6-0.4
		c-2.5-0.7-5-1.3-6.9-2.7c-0.5-0.4-0.9-0.9-1.5-1.3l-1.8,2c0.5,0.5,1,1,1.5,1.4C336.6,220.9,337.1,221.5,337.6,222.1z"/>
	<path class="st1" d="M197.8,144.4c-1.3-1.2-2-2.6-2.8-4c-0.8-1.6-1.6-2.9-3-3.9c-2-0.1-4.1,0.3-6.3,0.8c-1.8,0.3-3.6,0.7-5.4,0.8
		c1.7,4.2,4.4,7.7,7.2,11.4c2.4,3.1,4.9,6.3,6.8,10.1c1.1,2.3,1.3,5.1,1.4,7.7c0.2,3.2,0.3,6.3,2.3,8.2l10.3-1.3l0.3-0.4
		c-2.3-7.4-3.9-15-0.8-21.6l0.1-0.2l0.2-0.2c1.4-1.4,2-3.3,2.6-5.3c0.6-2,1.2-4.1,2.7-5.9c0.2-2,1.2-3.6,2.2-5
		c0.5-0.8,1-1.6,1.3-2.3c-1-1.2-2.2-0.9-4.4-0.4c-1.6,0.4-3.4,0.9-5.1,0.3l-2.2,1.9c-0.5,0.9-0.8,2-1.2,3.1
		c-0.9,2.7-1.9,5.7-4.7,6.6l-0.8,0.2L197.8,144.4z"/>
	<path class="st1" d="M253.6,139.3c-0.7-1-1.6-2.3-1.6-4.2c-1.9-2.6-4.5-3.1-7.5-3.7c-1.3-0.3-2.6-0.5-3.8-0.9
		c-8.4,1.3-14.6,5.5-17.4,11.8c-3.6,8.1-0.7,18.7,3.9,24.6c4.5,5.7,12.7,6,18.9,4.3c3.7-2.3,7.6-5.3,9.6-9.5
		c2.9-6.4,1-14.9-1.1-20.8C254.3,140.4,254,139.9,253.6,139.3z M245.6,150.7c0,0.6,0,1.2,0,1.9c0,2.4,0,5.2-2.2,7.3l-0.2,0.2
		l-0.3,0.1c-0.5,0.2-1,0.3-1.5,0.3c-2.4,0-3.8-2.6-4.7-4.2c-0.3-0.6-0.6-1.2-0.9-1.6l-0.2-0.3c-1.6-3.7-1.9-6.7-1-9.5l0.1-0.2
		l0.1-0.2c0.2-0.3,0.4-0.8,0.7-1.3c0.6-1.3,1.3-2.8,2.7-3.3c0.9-0.3,1.8-0.1,2.7,0.4l0.2,0.1l0.2,0.2c1.9,2.3,3.2,5.4,4.1,9.6l0,0.2
		L245.6,150.7z"/>
	<path d="M241.4,140.7l-0.2-0.2l-0.2-0.1c-1-0.5-1.9-0.7-2.7-0.4c-1.5,0.5-2.2,2-2.7,3.3c-0.2,0.5-0.5,1-0.7,1.3l-0.1,0.2l-0.1,0.2
		c-1,2.8-0.7,5.9,1,9.5l0.2,0.3c0.3,0.4,0.6,1,0.9,1.6c0.9,1.6,2.2,4.2,4.7,4.2c0.5,0,0.9-0.1,1.5-0.3l0.3-0.1l0.2-0.2
		c2.2-2.1,2.2-4.8,2.2-7.3c0-0.7,0-1.3,0-1.9l0-0.2l0-0.2C244.6,146.1,243.3,143,241.4,140.7z"/>
</g>
</svg>
